<svg id="svg" version="1.1" xmlns="http://www.w3.org/2000/svg" xmlns:xlink="http://www.w3.org/1999/xlink" width="400" height="400" viewBox="0, 0, 400,400"><g id="svgg"><path id="path0" d="M41.200 120.400 C 40.760 120.840,40.411 121.515,40.425 121.900 C 40.446 122.459,40.520 122.428,40.797 121.743 C 40.987 121.271,41.556 120.596,42.060 120.243 C 42.565 119.889,42.758 119.600,42.489 119.600 C 42.220 119.600,41.640 119.960,41.200 120.400 M357.556 120.158 C 358.082 120.450,358.750 121.118,359.042 121.644 C 359.333 122.170,359.578 122.399,359.586 122.154 C 359.610 121.391,357.977 119.599,357.271 119.614 C 356.778 119.625,356.854 119.769,357.556 120.158 M62.856 130.013 C 62.336 130.446,62.098 130.800,62.327 130.800 C 62.731 130.800,64.000 129.716,64.000 129.371 C 64.000 129.099,63.858 129.178,62.856 130.013 M336.239 129.756 C 336.361 130.076,336.744 130.446,337.088 130.578 C 338.063 130.952,338.014 130.669,336.968 129.887 C 336.251 129.350,336.070 129.318,336.239 129.756 M39.759 147.500 L 39.800 164.800 37.000 164.836 C 35.460 164.856,32.985 164.874,31.500 164.875 C 30.015 164.877,28.800 165.040,28.800 165.239 C 28.800 165.438,28.575 165.555,28.300 165.500 C 27.995 165.439,27.808 165.820,27.821 166.475 C 27.833 167.066,27.679 167.449,27.478 167.325 C 27.274 167.198,27.232 167.472,27.384 167.950 C 27.532 168.417,27.507 168.819,27.327 168.841 C 27.147 168.864,26.190 168.930,25.200 168.987 C 22.686 169.133,22.689 169.133,22.940 169.787 C 23.064 170.110,22.965 170.498,22.721 170.649 C 22.451 170.816,22.389 170.741,22.564 170.459 C 22.725 170.197,22.569 169.886,22.205 169.747 C 21.349 169.418,19.497 171.161,19.735 172.072 C 19.834 172.451,19.731 172.823,19.506 172.898 C 19.280 172.973,19.010 173.927,18.904 175.017 C 18.688 177.244,18.654 177.311,17.692 177.448 C 16.054 177.680,15.515 177.890,15.175 178.428 C 14.672 179.226,14.728 220.717,15.233 221.662 C 15.671 222.479,17.005 222.712,16.594 221.900 C 16.455 221.625,16.624 221.749,16.970 222.176 C 17.334 222.625,17.600 222.740,17.600 222.448 C 17.600 222.110,17.826 222.168,18.281 222.624 C 18.740 223.082,18.926 223.811,18.851 224.853 C 18.785 225.760,18.917 226.400,19.169 226.400 C 19.406 226.400,19.555 226.625,19.500 226.900 C 19.445 227.175,19.655 227.345,19.968 227.277 C 20.437 227.176,20.446 227.263,20.019 227.777 C 19.696 228.166,19.663 228.400,19.931 228.400 C 20.167 228.400,20.540 228.085,20.759 227.700 C 21.128 227.051,21.224 227.067,22.079 227.921 C 22.933 228.776,22.949 228.872,22.300 229.241 C 21.915 229.460,21.600 229.833,21.600 230.069 C 21.600 230.327,21.869 230.279,22.277 229.949 C 22.837 229.494,22.897 229.493,22.627 229.943 C 22.376 230.359,22.501 230.422,23.160 230.213 C 23.764 230.021,23.987 230.097,23.910 230.470 C 23.837 230.821,24.273 231.022,25.200 231.066 C 25.970 231.102,26.735 231.169,26.900 231.216 C 27.065 231.262,27.365 231.322,27.567 231.350 C 28.322 231.453,28.491 231.990,27.845 232.238 C 27.228 232.475,27.232 232.540,27.888 233.077 C 28.280 233.397,28.375 233.545,28.100 233.406 C 27.489 233.097,27.418 234.240,28.025 234.615 C 29.158 235.315,30.796 235.256,30.543 234.523 C 30.327 233.900,30.382 233.910,30.939 234.600 C 31.459 235.244,31.654 235.294,31.942 234.857 C 32.192 234.479,32.383 234.448,32.574 234.757 C 32.724 235.001,33.027 235.200,33.247 235.200 C 33.467 235.200,33.544 235.032,33.417 234.828 C 33.291 234.623,33.374 234.339,33.603 234.198 C 33.832 234.056,33.970 234.179,33.910 234.470 C 33.835 234.830,34.346 235.039,35.500 235.123 C 36.435 235.191,37.200 235.101,37.200 234.923 C 37.200 234.745,37.785 234.600,38.500 234.600 L 39.800 234.600 40.025 238.000 L 40.251 241.400 40.325 238.300 C 40.400 235.212,40.939 234.026,41.144 236.500 C 41.445 240.128,41.903 241.128,42.014 238.400 C 42.119 235.828,42.123 235.820,42.400 237.600 L 42.680 239.400 42.780 237.400 C 42.860 235.802,42.940 235.601,43.179 236.400 L 43.478 237.400 43.684 236.400 C 43.819 235.750,43.924 236.100,43.985 237.400 C 44.061 239.009,44.140 239.205,44.386 238.400 L 44.692 237.400 45.121 238.400 L 45.549 239.400 45.587 238.400 C 45.624 237.434,45.645 237.426,46.213 238.176 C 46.761 238.902,46.800 238.850,46.800 237.387 C 46.800 235.857,46.814 235.842,47.423 236.711 C 47.922 237.423,48.434 237.600,50.000 237.600 C 51.566 237.600,52.078 237.423,52.577 236.711 C 53.186 235.842,53.200 235.857,53.200 237.387 C 53.200 238.850,53.239 238.902,53.787 238.176 C 54.355 237.426,54.376 237.434,54.413 238.400 L 54.451 239.400 54.879 238.400 L 55.308 237.400 55.614 238.400 C 55.846 239.158,55.945 238.818,56.024 237.000 C 56.105 235.134,56.173 234.912,56.328 236.000 L 56.528 237.400 56.817 236.200 C 57.061 235.185,57.122 235.339,57.213 237.200 L 57.320 239.400 57.600 237.600 C 57.877 235.819,57.881 235.828,57.987 238.400 L 58.094 241.000 58.800 237.200 L 59.506 233.400 59.617 237.400 L 59.727 241.400 60.021 237.800 C 60.183 235.820,60.307 211.970,60.297 184.800 C 60.283 149.572,60.175 137.804,59.921 143.778 C 59.548 152.519,59.191 154.255,57.488 155.600 C 57.070 155.930,56.223 156.605,55.606 157.100 C 54.177 158.247,54.000 158.231,54.000 156.951 C 54.000 156.051,53.912 155.975,53.383 156.414 C 53.013 156.721,51.660 156.926,50.000 156.926 C 48.340 156.926,46.987 156.721,46.617 156.414 C 46.088 155.975,46.000 156.051,46.000 156.951 C 46.000 158.231,45.823 158.247,44.394 157.100 C 43.777 156.605,42.930 155.930,42.512 155.600 C 40.635 154.117,40.377 152.608,40.038 141.096 C 39.722 130.375,39.718 130.477,39.759 147.500 M359.923 141.292 C 359.629 152.601,359.372 154.112,357.488 155.600 C 357.070 155.930,356.223 156.605,355.606 157.100 C 354.177 158.247,354.000 158.231,354.000 156.951 C 354.000 156.051,353.912 155.975,353.383 156.414 C 353.013 156.721,351.660 156.926,350.000 156.926 C 348.340 156.926,346.987 156.721,346.617 156.414 C 346.088 155.975,346.000 156.051,346.000 156.951 C 346.000 158.231,345.823 158.247,344.394 157.100 C 343.777 156.605,342.930 155.930,342.512 155.600 C 340.809 154.255,340.452 152.519,340.079 143.778 C 339.825 137.804,339.717 149.572,339.703 184.800 C 339.693 211.970,339.817 235.820,339.979 237.800 L 340.273 241.400 340.383 237.400 L 340.494 233.400 341.200 237.200 L 341.906 241.000 342.013 238.400 C 342.119 235.828,342.123 235.819,342.400 237.600 L 342.680 239.400 342.787 237.200 C 342.878 235.339,342.939 235.185,343.183 236.200 L 343.472 237.400 343.672 236.000 C 343.827 234.912,343.895 235.134,343.976 237.000 C 344.055 238.818,344.154 239.158,344.386 238.400 L 344.692 237.400 345.121 238.400 L 345.549 239.400 345.587 238.400 C 345.624 237.434,345.645 237.426,346.213 238.176 C 346.761 238.902,346.800 238.850,346.800 237.387 C 346.800 235.857,346.814 235.842,347.423 236.711 C 347.922 237.423,348.434 237.600,350.000 237.600 C 351.566 237.600,352.078 237.423,352.577 236.711 C 353.186 235.842,353.200 235.857,353.200 237.387 C 353.200 238.850,353.239 238.902,353.787 238.176 C 354.355 237.426,354.376 237.434,354.413 238.400 L 354.451 239.400 354.879 238.400 L 355.308 237.400 355.614 238.400 C 355.859 239.199,355.936 238.998,356.000 237.400 C 356.063 235.818,356.142 235.609,356.379 236.400 L 356.678 237.400 356.884 236.400 C 357.022 235.734,357.129 236.068,357.206 237.400 L 357.320 239.400 357.600 237.600 C 357.877 235.820,357.881 235.828,357.986 238.400 C 358.097 241.128,358.555 240.128,358.856 236.500 C 359.061 234.026,359.600 235.212,359.675 238.300 L 359.749 241.400 359.975 238.000 L 360.200 234.600 361.500 234.600 C 362.215 234.600,362.800 234.744,362.800 234.920 C 362.800 235.365,366.888 235.166,367.500 234.691 C 367.826 234.438,368.000 234.441,368.000 234.701 C 368.000 235.099,369.926 235.273,370.507 234.927 C 370.675 234.827,370.680 234.532,370.518 234.272 C 370.024 233.483,369.994 232.634,370.476 233.116 C 370.708 233.348,371.191 233.428,371.549 233.294 C 372.117 233.081,372.129 233.137,371.643 233.735 C 371.033 234.484,371.273 235.049,372.008 234.595 C 372.262 234.438,372.381 233.970,372.272 233.555 C 372.164 233.139,372.283 232.795,372.537 232.788 C 372.792 232.781,372.681 232.590,372.292 232.363 C 371.902 232.136,371.689 231.779,371.819 231.569 C 371.949 231.359,372.210 231.283,372.400 231.400 C 372.590 231.517,372.843 231.453,372.964 231.258 C 373.085 231.063,373.907 230.987,374.792 231.089 C 375.846 231.211,376.400 231.116,376.400 230.814 C 376.400 230.560,376.580 230.464,376.800 230.600 C 377.020 230.736,377.200 230.646,377.200 230.400 C 377.200 230.154,377.365 230.055,377.566 230.179 C 378.045 230.475,380.475 228.045,380.179 227.566 C 380.055 227.365,380.154 227.200,380.400 227.200 C 380.646 227.200,380.736 227.020,380.600 226.800 C 380.464 226.580,380.560 226.400,380.814 226.400 C 381.114 226.400,381.211 225.852,381.093 224.825 C 380.899 223.151,381.343 222.326,382.249 222.674 C 382.552 222.790,382.800 222.703,382.800 222.480 C 382.800 222.257,383.157 222.168,383.593 222.282 C 384.181 222.436,384.489 222.217,384.786 221.436 C 385.327 220.015,385.332 178.800,384.792 178.800 C 384.576 178.800,384.445 178.583,384.500 178.318 C 384.555 178.053,384.420 177.808,384.200 177.774 C 382.248 177.470,381.195 177.011,381.166 176.450 C 381.022 173.738,380.860 173.065,380.268 172.734 C 379.901 172.529,379.603 172.144,379.606 171.880 C 379.610 171.586,379.763 171.633,380.000 172.000 C 380.277 172.428,380.390 172.451,380.394 172.082 C 380.402 171.410,378.590 169.598,377.918 169.606 C 377.549 169.610,377.572 169.723,378.000 170.000 C 378.367 170.237,378.414 170.390,378.120 170.394 C 377.856 170.397,377.471 170.099,377.266 169.732 C 376.928 169.128,376.133 168.946,373.342 168.834 C 372.731 168.810,372.484 168.542,372.482 167.900 C 372.477 166.555,372.192 165.572,371.820 165.623 C 371.638 165.648,371.334 165.428,371.145 165.134 C 370.858 164.690,370.741 164.691,370.450 165.143 C 370.212 165.512,370.014 165.547,369.832 165.252 C 369.685 165.014,368.717 164.834,367.682 164.852 C 366.647 164.870,364.540 164.866,363.000 164.843 L 360.200 164.801 360.311 153.900 C 360.373 147.905,360.373 140.210,360.311 136.800 C 360.213 131.305,360.168 131.815,359.923 141.292 M65.027 190.800 C 65.112 215.330,65.340 236.390,65.535 237.600 L 65.887 239.800 65.944 237.033 C 66.011 233.709,66.320 233.791,66.768 237.252 L 67.099 239.800 67.155 237.400 C 67.217 234.800,67.934 234.961,68.048 237.600 C 68.089 238.545,68.165 238.707,68.282 238.100 C 68.378 237.605,68.596 237.200,68.767 237.200 C 68.938 237.200,69.273 237.605,69.512 238.100 C 69.873 238.848,69.950 238.878,69.973 238.276 C 69.988 237.878,70.180 237.664,70.400 237.800 C 70.637 237.946,70.821 237.426,70.853 236.524 L 70.905 235.000 71.200 236.400 C 71.362 237.170,71.518 237.539,71.547 237.220 C 71.588 236.769,71.707 236.747,72.080 237.120 C 72.707 237.747,77.293 237.747,77.920 237.120 C 78.293 236.747,78.412 236.769,78.453 237.220 C 78.482 237.539,78.638 237.170,78.800 236.400 L 79.095 235.000 79.147 236.524 C 79.179 237.426,79.363 237.946,79.600 237.800 C 79.820 237.664,80.012 237.878,80.027 238.276 C 80.050 238.878,80.127 238.848,80.488 238.100 C 80.727 237.605,81.062 237.200,81.233 237.200 C 81.404 237.200,81.622 237.605,81.718 238.100 C 81.835 238.707,81.911 238.545,81.952 237.600 C 82.066 234.961,82.783 234.800,82.845 237.400 L 82.901 239.800 83.232 237.252 C 83.680 233.791,83.989 233.709,84.056 237.033 L 84.113 239.800 84.465 237.600 C 84.660 236.390,84.888 215.330,84.973 190.800 C 85.068 163.543,84.994 148.278,84.783 151.543 C 84.421 157.141,84.094 159.051,84.019 156.000 C 83.982 154.494,83.895 154.305,83.486 154.842 C 83.217 155.195,82.609 155.607,82.135 155.757 C 81.662 155.907,81.173 156.294,81.050 156.615 C 80.706 157.511,80.006 157.310,79.953 156.300 C 79.914 155.572,79.847 155.630,79.600 156.600 C 79.324 157.685,79.290 157.706,79.247 156.820 C 79.211 156.058,79.093 155.947,78.720 156.320 C 78.075 156.965,71.925 156.965,71.280 156.320 C 70.907 155.947,70.789 156.058,70.753 156.820 C 70.710 157.706,70.676 157.685,70.400 156.600 C 70.153 155.630,70.086 155.572,70.047 156.300 C 69.994 157.310,69.294 157.511,68.950 156.615 C 68.827 156.294,68.338 155.907,67.865 155.757 C 67.391 155.607,66.783 155.195,66.514 154.842 C 66.105 154.305,66.018 154.494,65.981 156.000 C 65.906 159.051,65.579 157.141,65.217 151.543 C 65.006 148.278,64.932 163.543,65.027 190.800 M115.027 190.800 C 115.112 215.330,115.340 236.390,115.535 237.600 L 115.887 239.800 115.944 237.033 C 116.011 233.709,116.320 233.791,116.768 237.252 L 117.099 239.800 117.155 237.400 C 117.217 234.800,117.934 234.961,118.048 237.600 C 118.089 238.545,118.165 238.707,118.282 238.100 C 118.378 237.605,118.596 237.200,118.767 237.200 C 118.938 237.200,119.273 237.605,119.512 238.100 C 119.873 238.848,119.950 238.878,119.973 238.276 C 119.988 237.878,120.180 237.664,120.400 237.800 C 120.637 237.946,120.821 237.426,120.853 236.524 L 120.905 235.000 121.200 236.400 C 121.362 237.170,121.518 237.539,121.547 237.220 C 121.588 236.769,121.707 236.747,122.080 237.120 C 122.707 237.747,127.293 237.747,127.920 237.120 C 128.293 236.747,128.411 236.769,128.447 237.220 C 128.473 237.539,128.632 237.260,128.800 236.600 L 129.105 235.400 129.153 236.724 C 129.180 237.495,129.367 237.944,129.600 237.800 C 129.820 237.664,130.012 237.878,130.027 238.276 C 130.050 238.878,130.127 238.848,130.488 238.100 C 130.727 237.605,131.062 237.200,131.233 237.200 C 131.404 237.200,131.622 237.605,131.718 238.100 C 131.890 238.995,132.164 236.452,132.031 235.200 C 131.974 234.667,132.012 234.667,132.377 235.200 C 132.603 235.530,132.791 236.685,132.794 237.767 C 132.802 240.326,133.125 239.987,133.248 237.291 C 133.376 234.472,133.983 234.626,134.070 237.500 C 134.135 239.642,134.151 239.677,134.297 238.008 C 134.384 237.022,134.668 235.953,134.928 235.631 C 135.311 235.157,135.287 235.111,134.800 235.387 C 134.470 235.575,134.306 235.608,134.436 235.462 C 134.744 235.113,265.256 235.113,265.564 235.462 C 265.694 235.608,265.530 235.575,265.200 235.387 C 264.713 235.111,264.689 235.157,265.072 235.631 C 265.332 235.953,265.616 237.022,265.703 238.008 C 265.849 239.677,265.865 239.642,265.930 237.500 C 266.017 234.626,266.624 234.472,266.752 237.291 C 266.875 239.987,267.198 240.326,267.206 237.767 C 267.209 236.685,267.397 235.530,267.623 235.200 C 267.988 234.667,268.026 234.667,267.969 235.200 C 267.836 236.452,268.110 238.995,268.282 238.100 C 268.378 237.605,268.596 237.200,268.767 237.200 C 268.938 237.200,269.273 237.605,269.512 238.100 C 269.873 238.848,269.950 238.878,269.973 238.276 C 269.988 237.878,270.180 237.664,270.400 237.800 C 270.633 237.944,270.820 237.495,270.847 236.724 L 270.895 235.400 271.200 236.600 C 271.368 237.260,271.527 237.539,271.553 237.220 C 271.589 236.769,271.707 236.747,272.080 237.120 C 272.348 237.388,273.636 237.600,275.000 237.600 C 276.364 237.600,277.652 237.388,277.920 237.120 C 278.293 236.747,278.412 236.769,278.453 237.220 C 278.482 237.539,278.638 237.170,278.800 236.400 L 279.095 235.000 279.147 236.524 C 279.179 237.426,279.363 237.946,279.600 237.800 C 279.820 237.664,280.012 237.878,280.027 238.276 C 280.050 238.878,280.127 238.848,280.488 238.100 C 280.727 237.605,281.062 237.200,281.233 237.200 C 281.404 237.200,281.622 237.605,281.718 238.100 C 281.835 238.707,281.911 238.545,281.952 237.600 C 282.066 234.961,282.783 234.800,282.845 237.400 L 282.901 239.800 283.232 237.252 C 283.680 233.791,283.989 233.709,284.056 237.033 L 284.113 239.800 284.465 237.600 C 284.660 236.390,284.888 215.330,284.973 190.800 C 285.068 163.543,284.994 148.278,284.783 151.543 C 284.421 157.141,284.094 159.051,284.019 156.000 C 283.982 154.494,283.895 154.305,283.486 154.842 C 283.217 155.195,282.609 155.607,282.135 155.757 C 281.662 155.907,281.173 156.294,281.050 156.615 C 280.706 157.511,280.006 157.310,279.953 156.300 C 279.914 155.572,279.847 155.630,279.600 156.600 C 279.324 157.685,279.290 157.706,279.247 156.820 C 279.211 156.058,279.093 155.947,278.720 156.320 C 278.426 156.614,276.987 156.800,275.000 156.800 C 273.013 156.800,271.574 156.614,271.280 156.320 C 270.907 155.947,270.789 156.058,270.753 156.820 C 270.710 157.706,270.676 157.685,270.400 156.600 C 270.153 155.630,270.086 155.572,270.047 156.300 C 269.994 157.310,269.294 157.511,268.950 156.615 C 268.827 156.294,268.338 155.907,267.865 155.757 C 267.391 155.607,266.783 155.195,266.514 154.842 C 266.105 154.305,266.018 154.494,265.981 156.000 C 265.905 159.090,265.576 157.110,265.240 151.543 C 264.922 146.285,264.916 146.349,264.859 155.500 L 264.800 164.800 200.000 164.800 L 135.200 164.800 135.141 155.500 C 135.084 146.349,135.078 146.285,134.760 151.543 C 134.424 157.110,134.095 159.090,134.019 156.000 C 133.982 154.494,133.895 154.305,133.486 154.842 C 133.217 155.195,132.609 155.607,132.135 155.757 C 131.662 155.907,131.173 156.294,131.050 156.615 C 130.706 157.511,130.006 157.310,129.953 156.300 C 129.914 155.572,129.847 155.630,129.600 156.600 C 129.324 157.685,129.290 157.706,129.247 156.820 C 129.211 156.058,129.093 155.947,128.720 156.320 C 128.075 156.965,121.925 156.965,121.280 156.320 C 120.907 155.947,120.789 156.058,120.753 156.820 C 120.710 157.706,120.676 157.685,120.400 156.600 C 120.153 155.630,120.086 155.572,120.047 156.300 C 119.994 157.310,119.294 157.511,118.950 156.615 C 118.827 156.294,118.338 155.907,117.865 155.757 C 117.391 155.607,116.783 155.195,116.514 154.842 C 116.105 154.305,116.018 154.494,115.981 156.000 C 115.906 159.051,115.579 157.141,115.217 151.543 C 115.006 148.278,114.932 163.543,115.027 190.800 M315.027 190.800 C 315.112 215.330,315.340 236.390,315.535 237.600 L 315.887 239.800 315.944 237.033 C 316.011 233.709,316.320 233.791,316.768 237.252 L 317.099 239.800 317.155 237.400 C 317.217 234.800,317.934 234.961,318.048 237.600 C 318.089 238.545,318.165 238.707,318.282 238.100 C 318.378 237.605,318.596 237.200,318.767 237.200 C 318.938 237.200,319.273 237.605,319.512 238.100 C 319.873 238.848,319.950 238.878,319.973 238.276 C 319.988 237.878,320.180 237.664,320.400 237.800 C 320.637 237.946,320.821 237.426,320.853 236.524 L 320.905 235.000 321.200 236.400 C 321.362 237.170,321.518 237.539,321.547 237.220 C 321.588 236.769,321.707 236.747,322.080 237.120 C 322.707 237.747,327.293 237.747,327.920 237.120 C 328.293 236.747,328.412 236.769,328.453 237.220 C 328.482 237.539,328.638 237.170,328.800 236.400 L 329.095 235.000 329.147 236.524 C 329.179 237.426,329.363 237.946,329.600 237.800 C 329.820 237.664,330.012 237.878,330.027 238.276 C 330.050 238.878,330.127 238.848,330.488 238.100 C 330.727 237.605,331.062 237.200,331.233 237.200 C 331.404 237.200,331.622 237.605,331.718 238.100 C 331.835 238.707,331.911 238.545,331.952 237.600 C 332.066 234.961,332.783 234.800,332.845 237.400 L 332.901 239.800 333.232 237.252 C 333.680 233.791,333.989 233.709,334.056 237.033 L 334.113 239.800 334.465 237.600 C 334.660 236.390,334.888 215.330,334.973 190.800 C 335.068 163.543,334.994 148.278,334.783 151.543 C 334.421 157.141,334.094 159.051,334.019 156.000 C 333.982 154.494,333.895 154.305,333.486 154.842 C 333.217 155.195,332.609 155.607,332.135 155.757 C 331.662 155.907,331.173 156.294,331.050 156.615 C 330.706 157.511,330.006 157.310,329.953 156.300 C 329.914 155.572,329.847 155.630,329.600 156.600 C 329.324 157.685,329.290 157.706,329.247 156.820 C 329.211 156.058,329.093 155.947,328.720 156.320 C 328.075 156.965,321.925 156.965,321.280 156.320 C 320.907 155.947,320.789 156.058,320.753 156.820 C 320.710 157.706,320.676 157.685,320.400 156.600 C 320.153 155.630,320.086 155.572,320.047 156.300 C 319.994 157.310,319.294 157.511,318.950 156.615 C 318.827 156.294,318.338 155.907,317.865 155.757 C 317.391 155.607,316.783 155.195,316.514 154.842 C 316.105 154.305,316.018 154.494,315.981 156.000 C 315.906 159.051,315.579 157.141,315.217 151.543 C 315.006 148.278,314.932 163.543,315.027 190.800 M378.469 171.462 C 378.871 171.826,379.189 172.411,379.175 172.762 C 379.158 173.173,379.019 173.076,378.784 172.491 C 378.583 171.990,378.010 171.417,377.509 171.216 C 377.009 171.015,376.856 170.839,377.169 170.825 C 377.481 170.811,378.066 171.098,378.469 171.462 M39.600 200.000 L 39.600 214.800 37.400 214.800 L 35.200 214.800 35.200 200.000 L 35.200 185.200 37.400 185.200 L 39.600 185.200 39.600 200.000 M152.048 189.300 C 152.251 206.668,152.357 208.928,152.994 209.566 C 153.849 210.421,171.234 210.525,172.080 209.681 C 172.478 209.283,172.627 206.356,172.717 197.181 L 172.834 185.200 175.000 185.200 L 177.166 185.200 177.283 197.181 C 177.373 206.356,177.522 209.283,177.920 209.681 C 178.766 210.525,196.151 210.421,197.006 209.566 C 197.643 208.928,197.749 206.668,197.952 189.300 L 198.000 185.200 200.000 185.200 L 202.000 185.200 202.048 189.300 C 202.251 206.668,202.357 208.928,202.994 209.566 C 203.849 210.421,221.234 210.525,222.080 209.681 C 222.478 209.283,222.627 206.356,222.717 197.181 L 222.834 185.200 225.000 185.200 L 227.166 185.200 227.283 197.181 C 227.373 206.356,227.522 209.283,227.920 209.681 C 228.766 210.525,246.151 210.421,247.006 209.566 C 247.643 208.928,247.749 206.668,247.952 189.300 L 248.000 185.200 256.400 185.200 L 264.800 185.200 264.800 200.000 L 264.800 214.800 200.000 214.800 L 135.200 214.800 135.200 200.000 L 135.200 185.200 143.600 185.200 L 152.000 185.200 152.048 189.300 M364.800 199.960 L 364.800 214.719 363.007 214.862 C 362.021 214.940,361.031 214.944,360.807 214.869 C 360.541 214.780,360.400 209.624,360.400 199.967 L 360.400 185.200 362.600 185.200 L 364.800 185.200 364.800 199.960 M20.698 228.301 C 20.188 228.873,20.169 229.087,20.596 229.477 C 21.004 229.851,21.259 229.798,21.769 229.235 C 22.317 228.629,22.333 228.442,21.871 228.059 C 21.449 227.708,21.177 227.765,20.698 228.301 " stroke="none" fill="#7546fc" fill-rule="evenodd"></path><path id="path1" d="M77.470 77.463 C 77.321 77.612,77.200 78.486,77.200 79.407 L 77.200 81.080 73.519 81.342 C 69.007 81.662,69.085 81.583,68.875 85.977 L 68.704 89.560 66.852 89.680 L 65.000 89.800 64.893 100.100 L 64.786 110.400 58.693 110.456 C 55.342 110.487,51.933 110.472,51.118 110.423 C 48.487 110.266,47.877 110.665,48.108 112.391 C 48.382 114.435,48.058 114.797,45.873 114.892 C 44.843 114.937,44.000 115.125,44.000 115.311 C 44.000 115.496,44.211 115.517,44.469 115.357 C 44.727 115.198,44.637 115.497,44.269 116.023 C 43.901 116.548,43.600 117.365,43.600 117.838 C 43.600 118.530,43.292 118.747,42.023 118.950 C 39.446 119.362,39.483 118.982,40.046 139.148 C 40.429 152.838,40.619 154.104,42.512 155.600 C 42.930 155.930,43.777 156.605,44.394 157.100 C 45.823 158.247,46.000 158.231,46.000 156.951 C 46.000 156.051,46.088 155.975,46.617 156.414 C 46.987 156.721,48.340 156.926,50.000 156.926 C 51.660 156.926,53.013 156.721,53.383 156.414 C 53.912 155.975,54.000 156.051,54.000 156.951 C 54.000 158.231,54.177 158.247,55.606 157.100 C 56.223 156.605,57.070 155.930,57.488 155.600 C 59.055 154.362,59.509 152.447,59.766 146.000 C 59.902 142.590,60.120 137.865,60.250 135.500 L 60.487 131.200 61.944 131.194 C 64.144 131.185,64.560 130.761,64.253 128.841 C 64.109 127.938,64.144 127.200,64.332 127.200 C 64.520 127.200,64.804 133.095,64.962 140.300 C 65.121 147.505,65.394 154.390,65.569 155.600 L 65.887 157.800 65.956 156.000 C 66.014 154.491,66.105 154.304,66.514 154.842 C 66.783 155.195,67.391 155.607,67.865 155.757 C 68.338 155.907,68.827 156.294,68.950 156.615 C 69.294 157.511,69.994 157.310,70.047 156.300 C 70.086 155.572,70.153 155.630,70.400 156.600 C 70.676 157.685,70.710 157.706,70.753 156.820 C 70.789 156.058,70.907 155.947,71.280 156.320 C 71.925 156.965,78.075 156.965,78.720 156.320 C 79.093 155.947,79.211 156.058,79.247 156.820 C 79.290 157.706,79.324 157.685,79.600 156.600 C 79.847 155.630,79.914 155.572,79.953 156.300 C 80.006 157.310,80.706 157.511,81.050 156.615 C 81.173 156.294,81.662 155.907,82.135 155.757 C 82.609 155.607,83.217 155.195,83.486 154.842 C 83.895 154.304,83.986 154.491,84.044 156.000 L 84.113 157.800 84.457 155.600 C 84.647 154.390,84.958 140.980,85.149 125.800 C 85.339 110.620,85.519 98.155,85.548 98.100 C 85.576 98.045,92.080 98.000,100.000 98.000 C 107.920 98.000,114.424 98.045,114.452 98.100 C 114.481 98.155,114.661 110.620,114.851 125.800 C 115.042 140.980,115.353 154.390,115.543 155.600 L 115.887 157.800 115.956 156.000 C 116.014 154.491,116.105 154.304,116.514 154.842 C 116.783 155.195,117.391 155.607,117.865 155.757 C 118.338 155.907,118.827 156.294,118.950 156.615 C 119.294 157.511,119.994 157.310,120.047 156.300 C 120.086 155.572,120.153 155.630,120.400 156.600 C 120.676 157.685,120.710 157.706,120.753 156.820 C 120.789 156.058,120.907 155.947,121.280 156.320 C 121.574 156.614,123.013 156.800,125.000 156.800 C 126.987 156.800,128.426 156.614,128.720 156.320 C 129.093 155.947,129.211 156.058,129.247 156.820 C 129.290 157.706,129.324 157.685,129.600 156.600 C 129.847 155.630,129.914 155.572,129.953 156.300 C 130.006 157.310,130.706 157.511,131.050 156.615 C 131.173 156.294,131.662 155.907,132.135 155.757 C 132.609 155.607,133.217 155.195,133.486 154.842 C 133.895 154.304,133.985 154.492,134.038 156.000 C 134.099 157.722,134.119 157.687,134.510 155.200 C 134.759 153.612,134.934 140.374,134.959 121.200 L 135.000 89.800 133.148 89.680 L 131.296 89.560 131.125 85.977 C 130.915 81.592,131.028 81.705,126.520 81.365 L 122.839 81.088 122.720 79.244 L 122.600 77.400 100.170 77.297 C 87.833 77.240,77.618 77.315,77.470 77.463 M277.470 77.463 C 277.321 77.612,277.200 78.486,277.200 79.407 L 277.200 81.080 273.519 81.342 C 269.007 81.662,269.085 81.583,268.875 85.977 L 268.704 89.560 266.852 89.680 L 265.000 89.800 265.043 121.200 C 265.070 140.234,265.247 153.624,265.493 155.200 C 265.880 157.684,265.901 157.720,265.962 156.000 C 266.015 154.492,266.105 154.304,266.514 154.842 C 266.783 155.195,267.391 155.607,267.865 155.757 C 268.338 155.907,268.827 156.294,268.950 156.615 C 269.294 157.511,269.994 157.310,270.047 156.300 C 270.086 155.572,270.153 155.630,270.400 156.600 C 270.676 157.685,270.710 157.706,270.753 156.820 C 270.789 156.058,270.907 155.947,271.280 156.320 C 271.925 156.965,278.075 156.965,278.720 156.320 C 279.093 155.947,279.211 156.058,279.247 156.820 C 279.290 157.706,279.324 157.685,279.600 156.600 C 279.847 155.630,279.914 155.572,279.953 156.300 C 280.006 157.310,280.706 157.511,281.050 156.615 C 281.173 156.294,281.662 155.907,282.135 155.757 C 282.609 155.607,283.217 155.195,283.486 154.842 C 283.895 154.304,283.986 154.491,284.044 156.000 L 284.113 157.800 284.457 155.600 C 284.647 154.390,284.958 140.980,285.149 125.800 C 285.339 110.620,285.519 98.155,285.548 98.100 C 285.576 98.045,292.080 98.000,300.000 98.000 C 307.920 98.000,314.424 98.045,314.452 98.100 C 314.481 98.155,314.661 110.620,314.851 125.800 C 315.042 140.980,315.353 154.390,315.543 155.600 L 315.887 157.800 315.956 156.000 C 316.014 154.491,316.105 154.304,316.514 154.842 C 316.783 155.195,317.391 155.607,317.865 155.757 C 318.338 155.907,318.827 156.294,318.950 156.615 C 319.294 157.511,319.994 157.310,320.047 156.300 C 320.086 155.572,320.153 155.630,320.400 156.600 C 320.676 157.685,320.710 157.706,320.753 156.820 C 320.789 156.058,320.907 155.947,321.280 156.320 C 321.574 156.614,323.013 156.800,325.000 156.800 C 326.987 156.800,328.426 156.614,328.720 156.320 C 329.093 155.947,329.211 156.058,329.247 156.820 C 329.290 157.706,329.324 157.685,329.600 156.600 C 329.847 155.630,329.914 155.572,329.953 156.300 C 330.006 157.310,330.706 157.511,331.050 156.615 C 331.173 156.294,331.662 155.907,332.135 155.757 C 332.609 155.607,333.217 155.195,333.486 154.842 C 333.895 154.304,333.986 154.491,334.044 156.000 L 334.113 157.800 334.431 155.600 C 334.606 154.390,334.879 147.505,335.038 140.300 C 335.196 133.095,335.480 127.200,335.668 127.200 C 335.856 127.200,335.891 127.938,335.747 128.841 C 335.440 130.761,335.856 131.185,338.056 131.194 L 339.513 131.200 339.750 135.500 C 339.880 137.865,340.098 142.590,340.234 146.000 C 340.491 152.447,340.945 154.362,342.512 155.600 C 342.930 155.930,343.777 156.605,344.394 157.100 C 345.823 158.247,346.000 158.231,346.000 156.951 C 346.000 156.051,346.088 155.975,346.617 156.414 C 346.987 156.721,348.340 156.926,350.000 156.926 C 351.660 156.926,353.013 156.721,353.383 156.414 C 353.912 155.975,354.000 156.051,354.000 156.951 C 354.000 158.231,354.177 158.247,355.606 157.100 C 356.223 156.605,357.070 155.930,357.488 155.600 C 359.373 154.111,359.567 152.830,359.943 139.353 C 360.512 118.951,360.558 119.432,357.998 119.000 C 356.703 118.781,356.400 118.564,356.400 117.854 C 356.400 117.372,356.099 116.548,355.731 116.023 C 355.363 115.497,355.273 115.198,355.531 115.357 C 355.789 115.517,356.000 115.496,356.000 115.311 C 356.000 115.125,355.178 114.938,354.174 114.895 C 351.736 114.788,351.555 114.620,351.857 112.735 C 352.216 110.491,352.157 110.475,343.258 110.427 C 338.964 110.403,335.401 110.335,335.340 110.274 C 335.280 110.213,335.178 105.581,335.115 99.982 L 335.000 89.800 333.148 89.680 L 331.296 89.560 331.125 85.977 C 330.915 81.592,331.028 81.705,326.520 81.365 L 322.839 81.088 322.720 79.244 L 322.600 77.400 300.170 77.297 C 287.833 77.240,277.618 77.315,277.470 77.463 M42.505 119.993 C 41.792 120.427,40.945 121.371,40.621 122.091 L 40.033 123.400 40.272 122.200 C 40.558 120.758,41.096 120.023,42.186 119.581 C 43.662 118.982,43.822 119.190,42.505 119.993 M358.851 120.342 C 359.210 120.704,359.615 121.540,359.751 122.200 C 359.987 123.340,359.958 123.325,359.190 121.900 C 358.745 121.075,358.240 120.400,358.067 120.400 C 357.894 120.400,357.404 120.121,356.976 119.779 C 356.230 119.183,356.239 119.169,357.200 119.421 C 357.750 119.565,358.493 119.980,358.851 120.342 M63.423 130.233 C 62.257 131.085,61.769 130.915,62.856 130.034 C 63.375 129.613,63.890 129.358,63.999 129.467 C 64.109 129.576,63.850 129.921,63.423 130.233 M337.795 130.732 C 337.556 130.982,336.000 129.972,336.000 129.567 C 336.000 129.345,336.432 129.486,336.961 129.881 C 337.489 130.277,337.865 130.660,337.795 130.732 M372.251 165.400 C 372.527 166.139,372.491 166.154,371.775 165.600 C 371.042 165.033,371.033 165.042,371.600 165.775 C 372.154 166.491,372.139 166.527,371.400 166.251 C 370.756 166.011,370.698 166.051,371.103 166.459 C 371.508 166.868,371.737 166.834,372.286 166.286 C 372.834 165.737,372.868 165.508,372.459 165.103 C 372.051 164.698,372.011 164.756,372.251 165.400 M20.122 169.204 C 19.230 169.564,18.500 171.810,18.928 172.879 C 19.043 173.165,19.151 172.849,19.168 172.176 C 19.213 170.447,20.020 169.543,21.833 169.194 C 23.192 168.932,23.241 168.889,22.200 168.871 C 21.540 168.860,20.605 169.010,20.122 169.204 M378.000 169.232 C 378.770 169.466,379.612 169.870,379.871 170.129 C 380.130 170.388,380.534 171.230,380.768 172.000 C 381.188 173.376,381.192 173.369,380.977 171.600 C 380.708 169.378,380.622 169.292,378.400 169.023 C 376.631 168.808,376.624 168.812,378.000 169.232 M377.956 170.333 C 378.482 170.748,379.258 171.518,379.680 172.044 L 380.448 173.000 379.854 171.778 C 379.527 171.106,378.751 170.336,378.130 170.067 L 377.000 169.578 377.956 170.333 M377.509 171.216 C 378.010 171.417,378.583 171.990,378.784 172.491 C 379.019 173.076,379.158 173.173,379.175 172.762 C 379.205 171.993,377.959 170.790,377.169 170.825 C 376.856 170.839,377.009 171.015,377.509 171.216 M35.274 187.500 L 35.348 189.800 35.494 187.720 L 35.640 185.640 37.720 185.494 L 39.800 185.348 37.500 185.274 L 35.200 185.200 35.274 187.500 M139.300 185.498 C 141.665 185.569,145.535 185.569,147.900 185.498 C 150.265 185.428,148.330 185.370,143.600 185.370 C 138.870 185.370,136.935 185.428,139.300 185.498 M173.907 185.490 C 174.626 185.579,175.706 185.577,176.307 185.486 C 176.908 185.395,176.320 185.322,175.000 185.324 C 173.680 185.326,173.188 185.401,173.907 185.490 M198.900 185.487 C 199.505 185.578,200.495 185.578,201.100 185.487 C 201.705 185.395,201.210 185.320,200.000 185.320 C 198.790 185.320,198.295 185.395,198.900 185.487 M223.907 185.490 C 224.626 185.579,225.706 185.577,226.307 185.486 C 226.908 185.395,226.320 185.322,225.000 185.324 C 223.680 185.326,223.188 185.401,223.907 185.490 M252.100 185.498 C 254.465 185.569,258.335 185.569,260.700 185.498 C 263.065 185.428,261.130 185.370,256.400 185.370 C 251.670 185.370,249.735 185.428,252.100 185.498 M362.280 185.482 L 364.360 185.640 364.518 187.720 L 364.676 189.800 364.638 187.600 L 364.600 185.400 362.400 185.362 L 360.200 185.324 362.280 185.482 M35.362 212.400 L 35.400 214.600 37.000 214.634 L 38.600 214.668 37.120 214.512 C 35.648 214.357,35.639 214.345,35.482 212.278 L 35.324 210.200 35.362 212.400 M364.470 212.277 L 364.400 214.354 362.700 214.507 L 361.000 214.660 362.713 214.730 C 364.693 214.811,364.922 214.490,364.695 211.946 C 364.540 210.201,364.540 210.201,364.470 212.277 M379.900 230.067 C 379.308 230.687,379.294 230.800,379.813 230.800 C 380.149 230.800,380.532 230.522,380.662 230.183 C 381.009 229.279,380.698 229.231,379.900 230.067 M167.700 235.500 C 185.465 235.558,214.535 235.558,232.300 235.500 C 250.065 235.442,235.530 235.395,200.000 235.395 C 164.470 235.395,149.935 235.442,167.700 235.500 M85.320 300.000 C 85.320 301.210,85.395 301.705,85.487 301.100 C 85.578 300.495,85.578 299.505,85.487 298.900 C 85.395 298.295,85.320 298.790,85.320 300.000 M114.520 300.000 C 114.520 301.210,114.595 301.705,114.687 301.100 C 114.778 300.495,114.778 299.505,114.687 298.900 C 114.595 298.295,114.520 298.790,114.520 300.000 M285.320 300.000 C 285.320 301.210,285.395 301.705,285.487 301.100 C 285.578 300.495,285.578 299.505,285.487 298.900 C 285.395 298.295,285.320 298.790,285.320 300.000 M314.520 300.000 C 314.520 301.210,314.595 301.705,314.687 301.100 C 314.778 300.495,314.778 299.505,314.687 298.900 C 314.595 298.295,314.520 298.790,314.520 300.000 " stroke="none" fill="#2e65fc" fill-rule="evenodd"></path><path id="path2" d="M93.155 102.178 C 93.047 102.286,92.363 102.421,91.636 102.476 C 89.460 102.642,89.516 101.180,89.782 150.800 C 90.026 196.163,90.486 217.528,90.783 197.200 C 90.910 188.479,90.924 188.343,91.242 192.800 C 91.722 199.531,91.873 199.953,91.940 194.756 C 92.052 186.075,92.990 183.763,93.220 191.600 C 93.307 194.547,93.357 194.760,93.600 193.200 C 93.877 191.419,93.881 191.427,93.987 194.000 C 94.110 196.967,94.623 195.839,94.806 192.200 L 94.907 190.200 95.170 192.083 C 95.565 194.912,95.992 194.857,96.065 191.967 L 96.130 189.400 96.400 191.600 L 96.670 193.800 96.763 191.600 C 96.865 189.195,97.465 189.748,97.632 192.400 C 97.710 193.639,97.739 193.674,97.887 192.700 C 98.042 191.673,98.183 191.600,100.000 191.600 C 101.817 191.600,101.958 191.673,102.113 192.700 C 102.261 193.674,102.290 193.639,102.368 192.400 C 102.535 189.748,103.135 189.195,103.237 191.600 L 103.330 193.800 103.600 191.600 L 103.870 189.400 103.935 191.967 C 104.008 194.857,104.435 194.912,104.830 192.083 L 105.093 190.200 105.194 192.200 C 105.377 195.839,105.890 196.967,106.013 194.000 C 106.119 191.427,106.123 191.419,106.400 193.200 C 106.643 194.760,106.693 194.547,106.780 191.600 C 107.010 183.763,107.948 186.075,108.060 194.756 C 108.127 199.953,108.278 199.531,108.758 192.800 C 109.076 188.343,109.090 188.479,109.217 197.200 C 109.514 217.528,109.974 196.163,110.218 150.800 C 110.465 104.744,110.418 102.655,109.135 102.446 C 107.881 102.243,93.335 101.999,93.155 102.178 M293.155 102.178 C 293.047 102.286,292.363 102.421,291.636 102.476 C 289.460 102.642,289.516 101.180,289.782 150.800 C 290.026 196.163,290.486 217.528,290.783 197.200 C 290.910 188.479,290.924 188.343,291.242 192.800 C 291.722 199.531,291.873 199.953,291.940 194.756 C 292.052 186.075,292.990 183.763,293.220 191.600 C 293.307 194.547,293.357 194.760,293.600 193.200 C 293.877 191.419,293.881 191.427,293.987 194.000 C 294.110 196.967,294.623 195.839,294.806 192.200 L 294.907 190.200 295.170 192.083 C 295.565 194.912,295.992 194.857,296.065 191.967 L 296.130 189.400 296.400 191.600 L 296.670 193.800 296.763 191.600 C 296.865 189.195,297.465 189.748,297.632 192.400 C 297.710 193.639,297.739 193.674,297.887 192.700 C 298.042 191.673,298.183 191.600,300.000 191.600 C 301.817 191.600,301.958 191.673,302.113 192.700 C 302.261 193.674,302.290 193.639,302.368 192.400 C 302.535 189.748,303.135 189.195,303.237 191.600 L 303.330 193.800 303.600 191.600 L 303.870 189.400 303.935 191.967 C 304.008 194.857,304.435 194.912,304.830 192.083 L 305.093 190.200 305.194 192.200 C 305.377 195.839,305.890 196.967,306.013 194.000 C 306.119 191.427,306.123 191.419,306.400 193.200 C 306.643 194.760,306.693 194.547,306.780 191.600 C 307.010 183.763,307.948 186.075,308.060 194.756 C 308.127 199.953,308.278 199.531,308.758 192.800 C 309.076 188.343,309.090 188.479,309.217 197.200 C 309.514 217.528,309.974 196.163,310.218 150.800 C 310.465 104.744,310.418 102.655,309.135 102.446 C 307.881 102.243,293.335 101.999,293.155 102.178 M378.314 169.767 C 379.075 170.118,379.882 170.925,380.233 171.686 L 380.840 173.000 380.593 171.800 C 380.283 170.286,379.714 169.717,378.200 169.407 L 377.000 169.160 378.314 169.767 M19.992 170.210 C 19.219 171.141,19.771 171.317,20.598 170.402 C 20.997 169.961,21.138 169.600,20.911 169.600 C 20.684 169.600,20.270 169.874,19.992 170.210 M19.600 228.752 C 19.600 229.142,21.155 230.598,21.323 230.364 C 21.387 230.274,21.026 229.801,20.520 229.314 C 20.014 228.827,19.600 228.574,19.600 228.752 M379.314 229.480 C 378.827 229.986,378.574 230.400,378.752 230.400 C 379.142 230.400,380.598 228.845,380.364 228.677 C 380.274 228.613,379.801 228.974,379.314 229.480 " stroke="none" fill="#9facfc" fill-rule="evenodd"></path><path id="path3" d="M89.672 240.200 C 89.627 293.569,89.710 298.074,90.728 297.445 C 90.957 297.303,91.247 297.352,91.372 297.554 C 91.498 297.758,95.329 297.922,100.000 297.922 C 104.671 297.922,108.502 297.758,108.628 297.554 C 108.753 297.352,109.043 297.303,109.272 297.445 C 110.290 298.074,110.373 293.569,110.328 240.200 C 110.297 202.492,110.173 187.048,109.955 193.600 C 109.510 206.994,109.356 207.738,109.210 197.200 C 109.090 188.504,109.075 188.356,108.758 192.800 C 108.278 199.531,108.127 199.953,108.060 194.756 C 107.948 186.075,107.010 183.763,106.780 191.600 C 106.693 194.547,106.643 194.760,106.400 193.200 C 106.123 191.419,106.119 191.427,106.013 194.000 C 105.890 196.967,105.377 195.839,105.194 192.200 L 105.093 190.200 104.830 192.083 C 104.435 194.912,104.008 194.857,103.935 191.967 L 103.870 189.400 103.600 191.600 L 103.330 193.800 103.237 191.600 C 103.135 189.195,102.535 189.748,102.368 192.400 C 102.290 193.639,102.261 193.674,102.113 192.700 C 101.958 191.673,101.817 191.600,100.000 191.600 C 98.183 191.600,98.042 191.673,97.887 192.700 C 97.739 193.674,97.710 193.639,97.632 192.400 C 97.465 189.748,96.865 189.195,96.763 191.600 L 96.670 193.800 96.400 191.600 L 96.130 189.400 96.065 191.967 C 95.992 194.857,95.565 194.912,95.170 192.083 L 94.907 190.200 94.806 192.200 C 94.623 195.839,94.110 196.967,93.987 194.000 C 93.881 191.427,93.877 191.419,93.600 193.200 C 93.357 194.760,93.307 194.547,93.220 191.600 C 92.990 183.763,92.052 186.075,91.940 194.756 C 91.873 199.953,91.722 199.531,91.242 192.800 C 90.925 188.356,90.910 188.504,90.790 197.200 C 90.644 207.738,90.490 206.994,90.045 193.600 C 89.827 187.048,89.703 202.492,89.672 240.200 M289.672 240.200 C 289.627 293.569,289.710 298.074,290.728 297.445 C 290.957 297.303,291.247 297.352,291.372 297.554 C 291.498 297.758,295.329 297.922,300.000 297.922 C 304.671 297.922,308.502 297.758,308.628 297.554 C 308.753 297.352,309.043 297.303,309.272 297.445 C 310.290 298.074,310.373 293.569,310.328 240.200 C 310.297 202.492,310.173 187.048,309.955 193.600 C 309.510 206.994,309.356 207.738,309.210 197.200 C 309.090 188.504,309.075 188.356,308.758 192.800 C 308.278 199.531,308.127 199.953,308.060 194.756 C 307.948 186.075,307.010 183.763,306.780 191.600 C 306.693 194.547,306.643 194.760,306.400 193.200 C 306.123 191.419,306.119 191.427,306.013 194.000 C 305.890 196.967,305.377 195.839,305.194 192.200 L 305.093 190.200 304.830 192.083 C 304.435 194.912,304.008 194.857,303.935 191.967 L 303.870 189.400 303.600 191.600 L 303.330 193.800 303.237 191.600 C 303.135 189.195,302.535 189.748,302.368 192.400 C 302.290 193.639,302.261 193.674,302.113 192.700 C 301.958 191.673,301.817 191.600,300.000 191.600 C 298.183 191.600,298.042 191.673,297.887 192.700 C 297.739 193.674,297.710 193.639,297.632 192.400 C 297.465 189.748,296.865 189.195,296.763 191.600 L 296.670 193.800 296.400 191.600 L 296.130 189.400 296.065 191.967 C 295.992 194.857,295.565 194.912,295.170 192.083 L 294.907 190.200 294.806 192.200 C 294.623 195.839,294.110 196.967,293.987 194.000 C 293.881 191.427,293.877 191.419,293.600 193.200 C 293.357 194.760,293.307 194.547,293.220 191.600 C 292.990 183.763,292.052 186.075,291.940 194.756 C 291.873 199.953,291.722 199.531,291.242 192.800 C 290.925 188.356,290.910 188.504,290.790 197.200 C 290.644 207.738,290.490 206.994,290.045 193.600 C 289.827 187.048,289.703 202.492,289.672 240.200 " stroke="none" fill="#c89cfc" fill-rule="evenodd"></path><path id="path4" d="M152.142 199.000 C 152.141 200.980,152.208 201.840,152.292 200.912 C 152.376 199.984,152.377 198.364,152.295 197.312 C 152.212 196.260,152.143 197.020,152.142 199.000 M197.742 199.000 C 197.741 200.980,197.808 201.840,197.892 200.912 C 197.976 199.984,197.977 198.364,197.895 197.312 C 197.812 196.260,197.743 197.020,197.742 199.000 M202.142 199.000 C 202.141 200.980,202.208 201.840,202.292 200.912 C 202.376 199.984,202.377 198.364,202.295 197.312 C 202.212 196.260,202.143 197.020,202.142 199.000 M247.742 199.000 C 247.741 200.980,247.808 201.840,247.892 200.912 C 247.976 199.984,247.977 198.364,247.895 197.312 C 247.812 196.260,247.743 197.020,247.742 199.000 M64.798 247.800 C 64.725 261.660,64.597 272.280,64.512 271.400 C 64.333 269.526,63.555 268.800,61.724 268.800 L 60.400 268.800 60.327 251.900 C 60.286 242.605,60.139 236.440,60.000 238.200 L 59.747 241.400 59.627 237.400 L 59.506 233.400 58.800 237.200 L 58.094 241.000 57.987 238.400 C 57.881 235.828,57.877 235.819,57.600 237.600 L 57.320 239.400 57.213 237.200 C 57.122 235.339,57.061 235.185,56.817 236.200 L 56.528 237.400 56.328 236.000 C 56.173 234.912,56.105 235.134,56.024 237.000 C 55.945 238.818,55.846 239.158,55.614 238.400 L 55.308 237.400 54.879 238.400 L 54.451 239.400 54.413 238.400 C 54.376 237.434,54.355 237.426,53.787 238.176 C 53.239 238.902,53.200 238.850,53.200 237.387 C 53.200 235.857,53.186 235.842,52.577 236.711 C 52.078 237.423,51.566 237.600,50.000 237.600 C 48.434 237.600,47.922 237.423,47.423 236.711 C 46.814 235.842,46.800 235.857,46.800 237.387 C 46.800 238.850,46.761 238.902,46.213 238.176 C 45.645 237.426,45.624 237.434,45.587 238.400 L 45.549 239.400 45.121 238.400 L 44.692 237.400 44.386 238.400 C 44.141 239.199,44.064 238.998,44.000 237.400 C 43.937 235.818,43.858 235.609,43.621 236.400 L 43.322 237.400 43.116 236.400 C 42.978 235.734,42.871 236.068,42.794 237.400 L 42.680 239.400 42.400 237.600 C 42.123 235.820,42.119 235.828,42.014 238.400 C 41.903 241.128,41.445 240.128,41.144 236.500 C 40.939 234.026,40.400 235.212,40.325 238.300 L 40.251 241.400 40.025 238.000 L 39.800 234.600 38.500 234.600 C 37.785 234.600,37.200 234.755,37.200 234.945 C 37.200 235.135,37.740 235.212,38.400 235.115 L 39.600 234.939 39.607 254.169 C 39.616 280.758,39.619 280.800,41.820 280.800 C 43.464 280.800,44.261 282.141,44.021 284.500 C 43.962 285.084,44.286 285.200,45.975 285.200 L 48.000 285.200 48.000 286.986 C 48.000 289.107,48.748 289.693,51.327 289.591 C 52.247 289.555,55.655 289.543,58.900 289.563 L 64.800 289.600 64.800 299.757 C 64.800 310.957,64.665 310.400,67.376 310.400 L 68.687 310.400 68.900 313.806 C 69.173 318.180,69.273 318.283,73.606 318.622 L 77.160 318.900 77.280 320.750 L 77.400 322.600 100.000 322.600 L 122.600 322.600 122.720 320.750 L 122.840 318.900 126.394 318.622 C 130.727 318.283,130.827 318.180,131.100 313.806 L 131.313 310.400 132.756 310.394 C 133.550 310.391,134.423 310.246,134.696 310.073 C 135.261 309.714,135.472 234.918,134.908 235.098 C 134.739 235.152,134.546 236.052,134.480 237.098 C 134.302 239.914,134.068 240.124,134.032 237.500 C 133.992 234.626,133.377 234.462,133.248 237.291 C 133.125 239.987,132.802 240.326,132.794 237.767 C 132.791 236.685,132.603 235.530,132.377 235.200 C 132.012 234.667,131.974 234.667,132.031 235.200 C 132.164 236.452,131.890 238.995,131.718 238.100 C 131.622 237.605,131.404 237.200,131.233 237.200 C 131.062 237.200,130.727 237.605,130.488 238.100 C 130.127 238.848,130.050 238.878,130.027 238.276 C 130.012 237.878,129.820 237.664,129.600 237.800 C 129.367 237.944,129.180 237.495,129.153 236.724 L 129.105 235.400 128.800 236.600 C 128.632 237.260,128.473 237.539,128.447 237.220 C 128.411 236.769,128.293 236.747,127.920 237.120 C 127.652 237.388,126.364 237.600,125.000 237.600 C 123.636 237.600,122.348 237.388,122.080 237.120 C 121.707 236.747,121.588 236.769,121.547 237.220 C 121.518 237.539,121.362 237.170,121.200 236.400 L 120.905 235.000 120.853 236.524 C 120.821 237.426,120.637 237.946,120.400 237.800 C 120.180 237.664,119.988 237.878,119.973 238.276 C 119.950 238.878,119.873 238.848,119.512 238.100 C 119.273 237.605,118.938 237.200,118.767 237.200 C 118.596 237.200,118.378 237.605,118.282 238.100 C 118.165 238.707,118.089 238.545,118.048 237.600 C 117.934 234.961,117.217 234.800,117.155 237.400 L 117.099 239.800 116.768 237.252 C 116.321 233.799,116.000 233.694,116.000 237.000 C 116.000 242.868,115.468 238.782,115.207 230.908 C 115.042 225.951,114.905 238.613,114.866 262.300 L 114.800 302.000 113.000 302.007 C 112.010 302.010,106.160 302.013,100.000 302.013 C 93.840 302.013,87.990 302.010,87.000 302.007 L 85.200 302.000 85.134 262.300 C 85.095 238.613,84.958 225.951,84.793 230.908 C 84.532 238.782,84.000 242.868,84.000 237.000 C 84.000 233.694,83.679 233.799,83.232 237.252 L 82.901 239.800 82.845 237.400 C 82.783 234.800,82.066 234.961,81.952 237.600 C 81.911 238.545,81.835 238.707,81.718 238.100 C 81.622 237.605,81.404 237.200,81.233 237.200 C 81.062 237.200,80.727 237.605,80.488 238.100 C 80.127 238.848,80.050 238.878,80.027 238.276 C 80.012 237.878,79.820 237.664,79.600 237.800 C 79.363 237.946,79.179 237.426,79.147 236.524 L 79.095 235.000 78.800 236.400 C 78.638 237.170,78.482 237.539,78.453 237.220 C 78.412 236.769,78.293 236.747,77.920 237.120 C 77.652 237.388,76.364 237.600,75.000 237.600 C 73.636 237.600,72.348 237.388,72.080 237.120 C 71.707 236.747,71.588 236.769,71.547 237.220 C 71.518 237.539,71.362 237.170,71.200 236.400 L 70.905 235.000 70.853 236.524 C 70.821 237.426,70.637 237.946,70.400 237.800 C 70.180 237.664,69.988 237.878,69.973 238.276 C 69.950 238.878,69.873 238.848,69.512 238.100 C 69.273 237.605,68.938 237.200,68.767 237.200 C 68.596 237.200,68.378 237.605,68.282 238.100 C 68.165 238.707,68.089 238.545,68.048 237.600 C 67.934 234.961,67.217 234.800,67.155 237.400 L 67.099 239.800 66.768 237.252 C 66.321 233.799,66.000 233.694,66.000 237.000 C 66.000 242.868,65.468 238.782,65.207 230.908 C 64.997 224.593,64.899 228.644,64.798 247.800 M284.858 229.000 C 284.783 232.520,284.584 236.390,284.417 237.600 L 284.113 239.800 284.056 237.033 C 283.989 233.709,283.680 233.791,283.232 237.252 L 282.901 239.800 282.845 237.400 C 282.783 234.800,282.066 234.961,281.952 237.600 C 281.911 238.545,281.835 238.707,281.718 238.100 C 281.622 237.605,281.404 237.200,281.233 237.200 C 281.062 237.200,280.727 237.605,280.488 238.100 C 280.127 238.848,280.050 238.878,280.027 238.276 C 280.012 237.878,279.820 237.664,279.600 237.800 C 279.363 237.946,279.179 237.426,279.147 236.524 L 279.095 235.000 278.800 236.400 C 278.638 237.170,278.482 237.539,278.453 237.220 C 278.412 236.769,278.293 236.747,277.920 237.120 C 277.652 237.388,276.364 237.600,275.000 237.600 C 273.636 237.600,272.348 237.388,272.080 237.120 C 271.707 236.747,271.589 236.769,271.553 237.220 C 271.527 237.539,271.368 237.260,271.200 236.600 L 270.895 235.400 270.847 236.724 C 270.820 237.495,270.633 237.944,270.400 237.800 C 270.180 237.664,269.988 237.878,269.973 238.276 C 269.950 238.878,269.873 238.848,269.512 238.100 C 269.273 237.605,268.938 237.200,268.767 237.200 C 268.596 237.200,268.378 237.605,268.282 238.100 C 268.110 238.995,267.836 236.452,267.969 235.200 C 268.026 234.667,267.988 234.667,267.623 235.200 C 267.397 235.530,267.209 236.685,267.206 237.767 C 267.198 240.326,266.875 239.987,266.752 237.291 C 266.623 234.462,266.008 234.626,265.968 237.500 C 265.932 240.160,265.698 239.903,265.513 237.000 C 265.443 235.900,265.250 235.090,265.085 235.200 C 264.527 235.571,264.744 309.717,265.304 310.073 C 265.577 310.246,266.450 310.391,267.244 310.394 L 268.687 310.400 268.900 313.806 C 269.173 318.180,269.273 318.283,273.606 318.622 L 277.160 318.900 277.280 320.750 L 277.400 322.600 300.000 322.600 L 322.600 322.600 322.720 320.750 L 322.840 318.900 326.394 318.622 C 330.727 318.283,330.827 318.180,331.100 313.806 L 331.313 310.400 332.624 310.400 C 335.335 310.400,335.200 310.957,335.200 299.757 L 335.200 289.600 341.100 289.563 C 344.345 289.543,347.753 289.555,348.673 289.591 C 351.252 289.693,352.000 289.107,352.000 286.986 L 352.000 285.200 354.000 285.200 L 356.000 285.200 356.000 283.774 C 356.000 281.733,356.616 280.800,357.965 280.800 C 360.386 280.800,360.383 280.836,360.393 254.169 L 360.400 234.939 361.600 235.115 C 362.260 235.212,362.800 235.135,362.800 234.945 C 362.800 234.755,362.215 234.600,361.500 234.600 L 360.200 234.600 359.975 238.000 L 359.749 241.400 359.675 238.300 C 359.600 235.212,359.061 234.026,358.856 236.500 C 358.555 240.128,358.097 241.128,357.986 238.400 C 357.881 235.828,357.877 235.820,357.600 237.600 L 357.320 239.400 357.220 237.400 C 357.140 235.802,357.060 235.601,356.821 236.400 L 356.522 237.400 356.316 236.400 C 356.181 235.750,356.076 236.100,356.015 237.400 C 355.939 239.009,355.860 239.205,355.614 238.400 L 355.308 237.400 354.879 238.400 L 354.451 239.400 354.413 238.400 C 354.376 237.434,354.355 237.426,353.787 238.176 C 353.239 238.902,353.200 238.850,353.200 237.387 C 353.200 235.857,353.186 235.842,352.577 236.711 C 352.078 237.423,351.566 237.600,350.000 237.600 C 348.434 237.600,347.922 237.423,347.423 236.711 C 346.814 235.842,346.800 235.857,346.800 237.387 C 346.800 238.850,346.761 238.902,346.213 238.176 C 345.645 237.426,345.624 237.434,345.587 238.400 L 345.549 239.400 345.121 238.400 L 344.692 237.400 344.386 238.400 C 344.154 239.158,344.055 238.818,343.976 237.000 C 343.895 235.134,343.827 234.912,343.672 236.000 L 343.472 237.400 343.183 236.200 C 342.939 235.185,342.878 235.339,342.787 237.200 L 342.680 239.400 342.400 237.600 C 342.123 235.819,342.119 235.828,342.013 238.400 L 341.906 241.000 341.200 237.200 L 340.494 233.400 340.373 237.400 L 340.253 241.400 340.000 238.200 C 339.861 236.440,339.714 242.605,339.673 251.900 L 339.600 268.800 338.276 268.800 C 336.445 268.800,335.667 269.526,335.488 271.400 C 335.403 272.280,335.275 261.660,335.202 247.800 C 335.101 228.644,335.003 224.593,334.793 230.908 C 334.532 238.782,334.000 242.868,334.000 237.000 C 334.000 233.694,333.679 233.799,333.232 237.252 L 332.901 239.800 332.845 237.400 C 332.783 234.800,332.066 234.961,331.952 237.600 C 331.911 238.545,331.835 238.707,331.718 238.100 C 331.622 237.605,331.404 237.200,331.233 237.200 C 331.062 237.200,330.727 237.605,330.488 238.100 C 330.127 238.848,330.050 238.878,330.027 238.276 C 330.012 237.878,329.820 237.664,329.600 237.800 C 329.363 237.946,329.179 237.426,329.147 236.524 L 329.095 235.000 328.800 236.400 C 328.638 237.170,328.482 237.539,328.453 237.220 C 328.412 236.769,328.293 236.747,327.920 237.120 C 327.652 237.388,326.364 237.600,325.000 237.600 C 323.636 237.600,322.348 237.388,322.080 237.120 C 321.707 236.747,321.588 236.769,321.547 237.220 C 321.518 237.539,321.362 237.170,321.200 236.400 L 320.905 235.000 320.853 236.524 C 320.821 237.426,320.637 237.946,320.400 237.800 C 320.180 237.664,319.988 237.878,319.973 238.276 C 319.950 238.878,319.873 238.848,319.512 238.100 C 319.273 237.605,318.938 237.200,318.767 237.200 C 318.596 237.200,318.378 237.605,318.282 238.100 C 318.165 238.707,318.089 238.545,318.048 237.600 C 317.934 234.961,317.217 234.800,317.155 237.400 L 317.099 239.800 316.768 237.252 C 316.321 233.799,316.000 233.694,316.000 237.000 C 316.000 242.868,315.468 238.782,315.207 230.908 C 315.042 225.951,314.905 238.613,314.866 262.300 L 314.800 302.000 313.000 302.007 C 312.010 302.010,306.160 302.013,300.000 302.013 C 293.840 302.013,287.991 302.010,287.002 302.007 L 285.204 302.000 285.100 262.300 C 285.043 240.465,284.934 225.480,284.858 229.000 M19.604 227.795 C 18.228 229.453,20.881 231.766,22.334 230.174 C 22.958 229.489,22.957 229.476,22.305 229.967 C 21.504 230.569,20.206 230.238,20.636 229.541 C 20.816 229.251,20.749 229.184,20.459 229.364 C 19.788 229.779,19.417 228.502,20.004 227.795 C 20.276 227.468,20.408 227.200,20.298 227.200 C 20.188 227.200,19.876 227.468,19.604 227.795 M20.444 228.100 C 20.142 228.595,20.037 228.867,20.211 228.703 C 20.663 228.279,21.645 229.202,21.319 229.745 C 21.169 229.995,21.396 229.936,21.823 229.613 C 22.250 229.290,22.674 228.977,22.764 228.916 C 22.970 228.777,21.564 227.200,21.234 227.200 C 21.101 227.200,20.746 227.605,20.444 228.100 M22.160 228.865 C 22.023 229.086,21.700 229.049,21.369 228.774 C 21.061 228.518,20.913 228.141,21.040 227.935 C 21.177 227.714,21.500 227.751,21.831 228.026 C 22.139 228.282,22.287 228.659,22.160 228.865 M380.195 228.893 C 379.978 229.384,379.350 230.011,378.800 230.287 C 378.070 230.653,377.989 230.790,378.500 230.794 C 379.355 230.801,380.800 229.423,380.800 228.600 C 380.800 227.777,380.658 227.846,380.195 228.893 M23.067 230.267 C 22.636 230.697,22.759 231.067,23.333 231.067 C 23.627 231.067,23.867 230.827,23.867 230.533 C 23.867 229.959,23.497 229.836,23.067 230.267 M27.388 231.620 C 27.007 232.235,27.528 232.632,28.042 232.118 C 28.329 231.831,28.336 231.607,28.062 231.439 C 27.839 231.300,27.535 231.382,27.388 231.620 M371.839 231.538 C 371.700 231.761,371.782 232.065,372.020 232.212 C 372.635 232.593,373.032 232.072,372.518 231.558 C 372.231 231.271,372.007 231.264,371.839 231.538 M27.343 233.405 C 27.009 234.274,27.936 235.210,28.942 235.021 C 29.414 234.932,29.881 234.846,29.980 234.830 C 30.079 234.813,29.937 234.577,29.663 234.303 C 29.268 233.908,29.098 233.918,28.828 234.355 C 28.425 235.007,27.600 234.603,27.600 233.753 C 27.600 233.401,27.791 233.271,28.062 233.438 C 28.348 233.615,28.415 233.548,28.238 233.262 C 27.856 232.643,27.621 232.680,27.343 233.405 M370.179 233.844 C 370.246 235.096,371.606 235.556,372.403 234.596 C 373.138 233.711,372.600 232.665,371.667 233.164 C 371.172 233.429,370.788 233.428,370.522 233.162 C 370.255 232.895,370.141 233.121,370.179 233.844 M372.052 234.508 C 371.386 235.174,371.009 234.513,371.628 233.766 C 372.003 233.314,372.220 233.260,372.330 233.591 C 372.418 233.855,372.293 234.267,372.052 234.508 M365.666 234.679 C 365.899 234.961,366.250 235.093,366.445 234.972 C 367.081 234.579,366.819 234.048,366.020 234.108 C 365.435 234.153,365.346 234.294,365.666 234.679 " stroke="none" fill="#a034fc" fill-rule="evenodd"></path></g></svg>