<?xml version="1.0" standalone="yes"?>
<svg xmlns="http://www.w3.org/2000/svg" width="64" height="64">
<path style="fill:#010101; stroke:none;" d="M0 0L0 64L64 64L64 0L0 0z"/>
<path style="fill:#5455ff; stroke:none;" d="M11 13L11 18L7 18L7 27L3 27L3 34L5 34L6 29L7 29L7 34L9 34L10 20L11 20L11 34L13 34C13 30.8705 11.1629 16.2068 16 16.2068C20.8371 16.2068 19 30.8705 19 34L21 34L21 29L25 29L25 33L27 33L27 29L29 29L29 33L31 33L31 29L33 29L33 33L35 33L35 29L37 29L37 33L39 33L39 29L43 29L43 34L45 34C45 30.8705 43.1629 16.2068 48 16.2068C52.8371 16.2068 51 30.8705 51 34L53 34L53 20L54 20L55 34L57 34L57 29L58 29L59 34L61 34L61 27L57 27L57 18L53 18L53 13L43 13L43 27L21 27L21 13L11 13z"/>
<path style="fill:#010101; stroke:none;" d="M14.5841 16.0864C10.4145 19.0145 12.6173 39.1297 13.0586 43.9807C13.2462 46.0426 14.5897 49.8983 17.4159 47.9136C21.5855 44.9855 19.3827 24.8703 18.9414 20.0193C18.7538 17.9574 17.4103 14.1017 14.5841 16.0864M46.5841 16.0864C42.4145 19.0145 44.6173 39.1297 45.0586 43.9807C45.2462 46.0426 46.5897 49.8983 49.4159 47.9136C53.5855 44.9855 51.3827 24.8703 50.9414 20.0193C50.7538 17.9574 49.4103 14.1017 46.5841 16.0864z"/>
<path style="fill:#69b7ff; stroke:none;" d="M15 17L15 25L17 25L17 17L15 17M47 17L47 25L49 25L49 17L47 17z"/>
<path style="fill:#010101; stroke:none;" d="M10 20C7.97437 26.8529 7.97437 37.1471 10 44L11 44L10 20M53 20L53 44L54 44C55.7946 37.9287 56.9373 25.1971 53 20z"/>
<path style="fill:#b2b8ff; stroke:none;" d="M15 25L15 47L17 47L17 25L15 25M47 25L47 47L49 47L49 25L47 25z"/>
<path style="fill:#010101; stroke:none;" d="M6 29L6 35L7 35L6 29M21 29L21 35L43 35L43 29L39 29L39 33L37 33L37 29L35 29L35 33L33 33L33 29L31 29L31 33L29 33L29 29L27 29L27 33L25 33L25 29L21 29M57 29L57 35L58 35L57 29z"/>
<path style="fill:#9d35ff; stroke:none;" d="M3 34L7 37L7 46L11 46L11 51L21 51L21 37L43 37L43 51L53 51L53 46L57 46L57 37L61 34L55 34L54 44L53 44L53 34L51 34C51 36.7763 52.5037 47.7932 48 47.7932C43.4963 47.7932 45 36.7763 45 34L19 34C19 36.7763 20.5037 47.7932 16 47.7932C11.4963 47.7932 13 36.7763 13 34L11 34L11 44L10 44L9 34L3 34z"/>
</svg>
